<svg width="181" height="32" viewBox="0 0 181 32" fill="none" xmlns="http://www.w3.org/2000/svg"><path d="M180.74 0.441369H108.55V1.64569H180.74V0.441369ZM115.177 14.1473C115.18 14.6472 115.092 15.1435 114.917 15.6117C114.746 16.0672 114.478 16.4796 114.13 16.8194C113.749 17.1821 113.297 17.4617 112.802 17.6406C112.194 17.8564 111.552 17.9595 110.907 17.945C110.706 17.945 110.517 17.945 110.339 17.945L109.822 17.9211L109.319 17.8869L108.789 17.8356V10.6165C109.149 10.5754 109.492 10.5458 109.815 10.5275C110.139 10.5093 110.481 10.499 110.842 10.4968C111.489 10.4838 112.134 10.5822 112.748 10.7876C113.253 10.9559 113.719 11.226 114.116 11.5813C114.469 11.9053 114.746 12.3038 114.927 12.748C115.1 13.195 115.185 13.6714 115.177 14.1507V14.1473ZM113.832 14.1473C113.834 13.797 113.773 13.4493 113.651 13.1209C113.535 12.8137 113.35 12.5373 113.11 12.3135C112.852 12.0798 112.548 11.9026 112.217 11.7934C111.82 11.6634 111.404 11.6009 110.986 11.6087C110.671 11.6058 110.356 11.6263 110.045 11.6703V16.8023C110.197 16.8294 110.352 16.8466 110.507 16.8536C110.659 16.8536 110.857 16.8536 111.098 16.8536C111.516 16.8633 111.931 16.7949 112.323 16.6518C112.646 16.5305 112.937 16.3388 113.175 16.0907C113.404 15.8479 113.576 15.5567 113.678 15.2388C113.789 14.8869 113.842 14.5195 113.836 14.1507L113.832 14.1473ZM116.98 17.8869V10.5241H118.232V17.8732H116.98V17.8869ZM124.469 15.8101C124.47 16.0987 124.415 16.3848 124.305 16.6518C124.195 16.9171 124.031 17.1561 123.823 17.3531C123.602 17.5599 123.342 17.7215 123.06 17.8287C122.732 17.9514 122.383 18.0106 122.033 18.0032C121.615 18.0033 121.201 17.9351 120.805 17.8014C120.424 17.6764 120.062 17.5015 119.727 17.2813L120.158 16.1591C120.451 16.379 120.773 16.5553 121.116 16.6826C121.429 16.8001 121.76 16.8615 122.095 16.8639C122.266 16.8675 122.436 16.8396 122.598 16.7818C122.725 16.7359 122.841 16.6649 122.94 16.5731C123.029 16.4882 123.098 16.3841 123.142 16.2686C123.185 16.1514 123.207 16.0274 123.207 15.9025C123.207 15.7865 123.189 15.6712 123.155 15.5603C123.113 15.4412 123.044 15.3334 122.953 15.2456C122.827 15.1229 122.686 15.0171 122.533 14.9308C122.304 14.8002 122.066 14.6859 121.821 14.5887C121.295 14.4021 120.825 14.0869 120.452 13.6717C120.194 13.3384 120.056 12.927 120.062 12.5051C120.062 12.2357 120.118 11.9692 120.227 11.7229C120.336 11.4765 120.496 11.2558 120.695 11.0749C120.918 10.8757 121.177 10.7212 121.458 10.6199C121.787 10.5011 122.135 10.4432 122.485 10.4489C122.833 10.4477 123.179 10.4996 123.511 10.6028C123.798 10.6881 124.071 10.8149 124.322 10.9791L123.922 12.0808C123.821 12.0147 123.707 11.9497 123.58 11.8858C123.461 11.8217 123.337 11.7668 123.21 11.7216C123.082 11.6751 122.952 11.6363 122.82 11.6053C122.693 11.5758 122.564 11.5609 122.433 11.5608C122.123 11.5343 121.814 11.6314 121.575 11.8311C121.486 11.9132 121.416 12.0128 121.368 12.1235C121.321 12.2343 121.297 12.3537 121.298 12.4743C121.296 12.594 121.322 12.7125 121.373 12.8209C121.424 12.9293 121.499 13.0248 121.592 13.1004C121.891 13.3307 122.22 13.5183 122.57 13.6581C122.883 13.7926 123.185 13.9516 123.474 14.1337C123.69 14.2691 123.885 14.4363 124.052 14.6297C124.189 14.7935 124.293 14.9831 124.356 15.1874C124.425 15.3895 124.464 15.6004 124.473 15.8135L124.469 15.8101ZM132.181 17.3155C131.842 17.5242 131.479 17.6897 131.1 17.8082C130.675 17.9439 130.232 18.012 129.786 18.01C129.24 18.0157 128.698 17.9182 128.188 17.7227C127.723 17.5447 127.297 17.2761 126.936 16.9323C126.584 16.5936 126.306 16.186 126.118 15.7348C125.92 15.2543 125.822 14.7388 125.827 14.2192C125.822 13.7015 125.922 13.1882 126.122 12.7104C126.311 12.2566 126.591 11.8458 126.943 11.5026C127.303 11.1559 127.728 10.8848 128.195 10.7055C128.701 10.5104 129.24 10.4129 129.782 10.418C130.221 10.415 130.657 10.4797 131.076 10.6096C131.452 10.7256 131.813 10.8877 132.15 11.0921L131.719 12.1561C131.418 11.9857 131.099 11.8492 130.768 11.7489C130.443 11.6484 130.105 11.5965 129.765 11.595C129.396 11.59 129.029 11.655 128.684 11.7866C128.376 11.9049 128.097 12.0881 127.867 12.3237C127.638 12.5616 127.462 12.8448 127.35 13.1551C127.226 13.4973 127.165 13.8588 127.169 14.2226C127.164 14.5857 127.226 14.9465 127.353 15.2867C127.47 15.5961 127.649 15.8779 127.88 16.1146C128.115 16.3504 128.397 16.5335 128.708 16.6518C129.056 16.7834 129.425 16.8483 129.796 16.8434C130.144 16.8407 130.49 16.7865 130.823 16.6826C131.165 16.5807 131.495 16.4395 131.805 16.2617L132.181 17.3155ZM140.864 14.2158C140.868 14.7327 140.771 15.2454 140.577 15.7246C140.396 16.1751 140.126 16.5847 139.783 16.9289C139.443 17.2675 139.04 17.5361 138.596 17.7192C138.125 17.9135 137.62 18.0113 137.111 18.0066C136.607 18.0107 136.108 17.913 135.643 17.7192C135.205 17.5375 134.808 17.2686 134.477 16.9289C134.144 16.5825 133.883 16.173 133.71 15.7246C133.523 15.2438 133.429 14.7318 133.433 14.2158C133.428 13.6955 133.526 13.1793 133.72 12.6967C133.9 12.2478 134.168 11.8397 134.509 11.497C134.85 11.1542 135.257 10.8839 135.705 10.702C136.174 10.5089 136.676 10.4112 137.183 10.4146C137.689 10.4094 138.191 10.5072 138.658 10.702C139.095 10.8857 139.49 11.1556 139.821 11.4958C140.154 11.8423 140.414 12.2517 140.587 12.7001C140.775 13.1844 140.869 13.6999 140.864 14.2192V14.2158ZM139.52 14.2158C139.523 13.8537 139.464 13.4937 139.345 13.1517C139.237 12.8402 139.073 12.5513 138.859 12.2998C138.654 12.0608 138.4 11.8694 138.114 11.7387C137.813 11.6023 137.486 11.5334 137.156 11.5368C136.824 11.5339 136.496 11.6028 136.194 11.7387C135.905 11.8681 135.648 12.0596 135.441 12.2998C135.228 12.5513 135.063 12.8402 134.956 13.1517C134.722 13.8407 134.722 14.5875 134.956 15.2764C135.062 15.5874 135.227 15.8753 135.441 16.1249C135.655 16.3682 135.918 16.5626 136.213 16.6949C136.508 16.8271 136.829 16.8941 137.152 16.8913C137.483 16.8951 137.81 16.825 138.11 16.686C138.395 16.5528 138.649 16.3617 138.856 16.1249C139.07 15.8753 139.235 15.5874 139.342 15.2764C139.462 14.937 139.524 14.5794 139.523 14.2192L139.52 14.2158ZM145.336 17.9793H145.175L141.778 10.531H143.211L145.264 15.4235L147.317 10.531H148.709L145.336 17.9793ZM149.907 17.88V10.5241H154.389V11.6668H151.159V13.6033H154.078V14.705H151.159V16.7407H154.389V17.8835H149.907V17.88ZM160.253 17.88L158.649 15.2319H158.457H157.889H157.523V17.8903H156.271V10.6096C156.565 10.5754 156.867 10.5469 157.177 10.5241C157.488 10.5013 157.83 10.4899 158.204 10.4899C158.66 10.4809 159.114 10.542 159.552 10.6712C159.893 10.7729 160.212 10.9402 160.489 11.1639C160.728 11.3598 160.916 11.6112 161.037 11.8961C161.155 12.1859 161.214 12.4965 161.211 12.8096C161.22 13.2615 161.091 13.7054 160.842 14.0823C160.577 14.4634 160.207 14.7593 159.778 14.9342L161.704 17.8937H160.25L160.253 17.88ZM159.894 12.8575C159.9 12.6859 159.867 12.5153 159.798 12.3583C159.728 12.2013 159.624 12.0621 159.494 11.9508C159.173 11.7045 158.775 11.5829 158.371 11.6087C158.219 11.6087 158.071 11.6087 157.93 11.6087C157.795 11.6152 157.662 11.6323 157.53 11.66V14.1679C157.644 14.1816 157.758 14.1918 157.872 14.1986H158.238C158.678 14.2321 159.116 14.1044 159.47 13.8394C159.609 13.7189 159.721 13.5691 159.796 13.4005C159.871 13.2319 159.908 13.0488 159.904 12.8643L159.894 12.8575ZM163.062 17.88V10.5241H164.314V17.8732H163.062V17.88ZM172.224 18.0203L167.647 13.1757V17.8869H166.394V10.4386L166.596 10.3975L171.14 15.1874V10.5241H172.392V17.9827L172.224 18.0203ZM180.757 13.99V17.1992C180.369 17.4505 179.949 17.6495 179.509 17.7911C179.026 17.9384 178.524 18.0099 178.02 18.0032C177.509 18.0047 177.002 17.9108 176.525 17.7261C176.065 17.5507 175.643 17.2882 175.283 16.9529C174.723 16.4059 174.343 15.7017 174.193 14.9336C174.042 14.1655 174.129 13.3698 174.442 12.6522C174.853 11.7427 175.608 11.0338 176.542 10.6815C177.014 10.5012 177.515 10.4096 178.02 10.4112C178.505 10.4025 178.988 10.4718 179.45 10.6165C179.863 10.7552 180.258 10.9424 180.627 11.1742L180.056 12.1766C179.758 11.9841 179.436 11.8322 179.098 11.725C178.766 11.6185 178.42 11.5642 178.072 11.5642C177.689 11.5568 177.308 11.6266 176.953 11.7695C176.642 11.8973 176.363 12.0911 176.135 12.3374C175.912 12.5817 175.74 12.8678 175.629 13.1791C175.511 13.5084 175.452 13.8558 175.454 14.2055C175.451 14.5744 175.52 14.9404 175.656 15.2832C175.781 15.6016 175.971 15.8905 176.214 16.1317C176.707 16.6172 177.373 16.8878 178.065 16.8844C178.341 16.8891 178.617 16.8604 178.886 16.7989C179.117 16.7398 179.339 16.6501 179.546 16.532V15.0882H177.836V13.9865H180.754L180.757 13.99ZM111.817 25.3454V31.5518H110.565V25.3454H108.228V24.2096H114.143V25.3523H111.817V25.3454ZM120.23 31.5518V28.3939H116.85V31.5518H115.598V24.2096H116.85V27.2888H120.23V24.2096H121.482V31.5586H120.23V31.5518ZM123.487 31.5518V24.2096H127.969V25.3523H124.739V27.2888H127.658V28.3904H124.739V30.4262H127.969V31.5689H123.511L123.487 31.5518ZM133.652 25.3454V27.4906H136.512V28.6026H133.676V31.5518H132.407V24.2096H136.889V25.3523H133.659L133.652 25.3454ZM144.159 28.7326C144.166 29.1584 144.094 29.5817 143.947 29.9814C143.818 30.3282 143.616 30.6433 143.355 30.9051C143.092 31.1614 142.775 31.3565 142.428 31.4765C142.033 31.6116 141.617 31.6776 141.2 31.6716C140.809 31.6956 140.417 31.6414 140.048 31.5121C139.678 31.3829 139.338 31.1812 139.048 30.9188C138.537 30.417 138.281 29.6883 138.281 28.7326V24.2096H139.533V28.6573C139.492 29.1698 139.65 29.6783 139.975 30.0772C140.317 30.3793 140.758 30.546 141.215 30.546C141.672 30.546 142.113 30.3793 142.455 30.0772C142.78 29.6811 142.939 29.1749 142.9 28.6642V24.2164H144.152V28.7497L144.159 28.7326ZM149.113 25.3454V31.5518H147.861V25.3454H145.524V24.2096H151.44V25.3523H149.113V25.3454ZM158.693 28.7326C158.7 29.1584 158.628 29.5817 158.481 29.9814C158.352 30.3282 158.15 30.6433 157.889 30.9051C157.626 31.1614 157.309 31.3565 156.962 31.4765C156.567 31.6116 156.151 31.6776 155.734 31.6716C155.343 31.6956 154.951 31.6414 154.582 31.5121C154.212 31.3829 153.872 31.1812 153.581 30.9188C153.071 30.417 152.815 29.6883 152.815 28.7326V24.2096H154.067V28.6573C154.026 29.1698 154.184 29.6783 154.509 30.0772C154.851 30.3793 155.292 30.546 155.749 30.546C156.206 30.546 156.647 30.3793 156.989 30.0772C157.314 29.6811 157.473 29.1749 157.434 28.6642V24.2164H158.686V28.7497L158.693 28.7326ZM164.598 31.5518L162.994 28.9037H162.802H162.234H161.868V31.5621H160.616V24.2814C160.91 24.2472 161.212 24.2187 161.522 24.1959C161.833 24.173 162.175 24.1617 162.549 24.1617C163.005 24.1526 163.46 24.2138 163.897 24.343C164.238 24.4446 164.557 24.612 164.834 24.8356C165.074 25.0316 165.262 25.2829 165.382 25.5678C165.5 25.8577 165.56 26.1683 165.556 26.4813C165.565 26.9333 165.436 27.3772 165.187 27.7541C164.922 28.1351 164.552 28.4311 164.123 28.606L166.049 31.5655H164.595L164.598 31.5518ZM164.239 26.5292C164.245 26.3577 164.212 26.1871 164.143 26.0301C164.073 25.8731 163.969 25.7338 163.839 25.6226C163.519 25.3763 163.12 25.2547 162.717 25.2804C162.564 25.2804 162.417 25.2804 162.275 25.2804C162.141 25.2869 162.007 25.3041 161.875 25.3318V27.8396C161.989 27.8533 162.103 27.8636 162.217 27.8704H162.583C163.024 27.9038 163.461 27.7762 163.815 27.5112C163.954 27.3908 164.064 27.2413 164.139 27.0734C164.213 26.9054 164.25 26.7232 164.246 26.5395L164.239 26.5292ZM167.356 31.5518V24.2096H171.838V25.3523H168.608V27.2888H171.527V28.3904H168.608V30.4262H171.838V31.5689H167.356V31.5518ZM32.1129 0L47.5398 31.6476H40.136L37.8882 26.7995H28.5684L31.2439 21.0687H35.069L32.1163 14.5442L24.0932 31.651H16.6894L32.1129 0ZM62.6622 13.3125L60.9858 12.5632C58.1221 11.2836 56.7535 10.4044 56.7535 8.77238C56.7535 7.36277 57.9886 6.61348 59.1793 6.61348C60.6334 6.61348 61.605 7.01038 63.1891 8.95029L67.9482 3.92429C65.3035 0.845066 62.6588 0 59.1759 0C54.1944 0 49.6542 3.57191 49.6542 9.03583C49.6542 13.2681 52.2545 16.751 56.9725 18.8654L58.7345 19.6591C61.3792 20.8498 62.3919 21.7291 62.3919 23.1421C62.3919 24.5551 61.4647 25.3899 59.3948 25.3899C57.2359 25.3899 54.9881 23.6792 53.6196 21.5101L48.2857 25.8723C50.4446 29.9266 54.5023 32 59.5248 32C65.3412 32 69.4878 28.3425 69.4878 22.7007C69.5015 18.3932 66.9903 15.2593 62.6691 13.3194L62.6622 13.3125ZM72.0915 0.35241V7.3183H79.5843V31.6476H86.6357V7.3183H93.1124L96.5337 0.35241H72.0949H72.0915ZM0 31.6579H7.05142V19.4196H15.9743L15.8956 12.6317H7.05142V7.34223H19.3068L22.6973 0.376341H0V31.6716V31.6579Z" fill="#083672"/></svg>
