<svg width="111" height="25" viewBox="0 0 111 25" fill="none" xmlns="http://www.w3.org/2000/svg">
<path d="M6.59989 14.5235V13.4198H2.15019L6.40049 7.12886V6.02512H0.298661V7.11241H4.29951L0 13.3522V14.5235H6.59989ZM15.5062 10.1406C15.5062 7.49677 14.0897 5.80696 11.5062 5.80696C8.3064 5.80696 7.33964 8.33389 7.33964 10.3916C7.33964 13.0345 8.75612 14.7269 11.3396 14.7269C14.5394 14.7269 15.5062 12.1983 15.5062 10.1406ZM13.4561 10.2574C13.4561 12.3818 12.9227 13.5695 11.4561 13.5695C9.92314 13.5695 9.38969 12.2312 9.38969 10.2574C9.38969 8.13305 9.92314 6.96178 11.3897 6.96178C12.9227 6.96178 13.4561 8.28368 13.4561 10.2574ZM24.763 10.1406C24.763 7.49677 23.3456 5.80696 20.763 5.80696C17.5623 5.80696 16.5955 8.33389 16.5955 10.3916C16.5955 13.0345 18.012 14.7269 20.5955 14.7269C23.7962 14.7269 24.763 12.1983 24.763 10.1406ZM22.7129 10.2574C22.7129 12.3818 22.1795 13.5695 20.7129 13.5695C19.179 13.5695 18.6456 12.2312 18.6456 10.2574C18.6456 8.13305 19.179 6.96178 20.6456 6.96178C22.1795 6.96178 22.7129 8.28368 22.7129 10.2574ZM38.4021 14.5235V9.32076C38.4021 8.93553 38.4021 8.31657 38.2692 7.71492C37.8523 5.94115 36.2355 5.80696 35.5355 5.80696C33.6684 5.80696 32.7025 6.91157 32.7025 6.91157C32.7025 6.91157 32.2019 5.82428 30.3685 5.82428C28.668 5.82428 27.9188 6.86136 27.9188 6.86136V6.0078H26.0025V14.5235H27.9688V7.43012C27.9688 7.43012 28.5014 7.11241 29.3689 7.11241C30.4358 7.11241 30.9856 7.58074 31.1358 8.4672C31.2023 8.86888 31.2023 9.27055 31.2023 9.77265V14.5235H33.185V9.63847C33.185 9.27055 33.2023 8.55117 33.1022 7.99887C33.0685 7.82886 33.0241 7.66116 32.9692 7.49677C32.9692 7.49677 33.6019 7.12886 34.5359 7.12886C35.3853 7.12886 36.2018 7.36259 36.3693 8.45075C36.4358 8.85243 36.4358 9.27055 36.4358 9.77265V14.5235H38.4021ZM66.4754 6.09177C66.225 5.99136 65.9091 5.84073 65.342 5.84073C63.992 5.84073 63.2919 7.07865 63.2919 7.07865V6.0078H61.3921V14.5235H63.3584V7.61451C63.3584 7.61451 63.8755 7.29594 64.6756 7.29594C65.4093 7.29594 65.8254 7.58074 66.0084 7.71492L66.4754 6.09177ZM73.7356 14.5235V9.50428C73.7356 9.03682 73.7528 7.91576 73.5854 7.41367C73.4188 6.89426 72.919 5.82428 70.6687 5.82428C68.9026 5.82428 67.9022 6.25885 67.9022 6.25885L68.3191 7.43012C68.3191 7.43012 69.0692 6.97823 70.1689 6.97823C70.9354 6.97823 71.4861 7.17907 71.7019 7.83179C71.8021 8.13305 71.8193 8.61783 71.8193 9.08703V9.68868C71.8193 9.68868 71.2021 9.63847 70.6195 9.63847C69.6027 9.63847 68.7024 9.70512 68.0351 10.1908C67.4352 10.6253 67.1029 11.2781 67.1029 12.1818C67.1029 13.6873 68.1189 14.643 69.7019 14.643C71.1857 14.643 71.8685 13.7375 71.8685 13.7375V14.5235H73.7356ZM71.8193 13.2518C71.8193 13.2518 71.386 13.47 70.6359 13.47C69.8685 13.47 69.052 13.1687 69.052 12.0814C69.052 11.6624 69.1858 11.1776 69.6027 10.8928C69.935 10.6764 70.3856 10.5751 70.9527 10.5751C71.6519 10.5751 71.8193 10.5924 71.8193 10.5924V13.2518ZM83.392 10.0739C83.392 7.41367 82.042 5.87449 79.8918 5.87449C78.1749 5.87449 77.5086 6.87868 77.5086 6.87868V6.0078H75.5923V17.9126H77.5586V14.3227C77.5586 14.3227 78.0912 14.6776 79.3584 14.6776C81.6415 14.6776 83.392 12.8839 83.392 10.073V10.0739ZM81.3419 10.2237C81.3419 12.2987 80.5754 13.5868 78.6255 13.5868C77.9583 13.5868 77.5586 13.4362 77.5586 13.4362V7.46301C77.5586 7.46301 78.0748 7.14531 78.9414 7.14531C80.509 7.14531 81.3411 8.36678 81.3411 10.2237H81.3419ZM92.0816 14.5235V9.40473C92.0816 9.0195 92.0817 8.33389 91.9479 7.73137C91.7485 6.86136 91.0484 5.82428 89.2979 5.82428C87.531 5.82428 86.7981 6.86136 86.7981 6.86136V2.20573H84.8318V14.5235H86.7981V7.43012C86.7981 7.43012 87.398 7.11241 88.2319 7.11241C89.1978 7.11241 89.865 7.49677 90.048 8.45075C90.1153 8.81867 90.1153 9.30431 90.1153 9.8393V14.5235H92.0816ZM96.1447 3.79772C96.1447 3.14586 95.6613 2.74419 94.9785 2.74419C94.2448 2.74419 93.7778 3.16231 93.7778 3.86524C93.7778 4.51797 94.2612 4.91878 94.9448 4.91878C95.6785 4.91878 96.1447 4.50065 96.1447 3.79772ZM95.9617 14.5235V6.0078H93.9945V14.5235H95.9617ZM104.044 6.25885C104.044 6.25885 103.177 5.84073 101.827 5.84073C99.827 5.84073 98.66 6.69429 98.0272 7.71492C97.5439 8.48451 97.3436 9.40473 97.3436 10.4245C97.3436 12.9506 98.7774 14.6603 101.46 14.6603C103.227 14.6603 104.027 14.1556 104.027 14.1556L103.627 13.0345C103.461 13.1349 102.877 13.4362 101.994 13.4362C100.06 13.4362 99.36 11.9135 99.36 10.2574C99.36 7.99887 100.244 7.02844 102.01 7.02844C103.06 7.02844 103.644 7.44656 103.644 7.44656L104.044 6.25885ZM111 12.0312C111 10.9768 110.467 10.3085 109.467 9.78909L108.2 9.11992C107.483 8.7347 107.133 8.55117 107.133 7.94866C107.133 7.17907 107.899 6.9791 108.567 6.9791C109.65 6.9791 110.4 7.44656 110.4 7.44656L110.8 6.27616C110.8 6.27616 109.95 5.82428 108.366 5.82428C106.599 5.82428 105.4 6.57742 105.4 8.18326C105.4 9.33721 105.983 9.92328 107.05 10.5249L108.35 11.2608C108.933 11.5958 109.2 11.7802 109.2 12.3489C109.2 13.051 108.65 13.47 107.634 13.47C106.234 13.47 105.5 13.0008 105.5 13.0008L105.1 14.1556C105.1 14.1556 105.967 14.643 107.817 14.643C109.3 14.643 111 14.1054 111 12.0312Z" fill="black"/>
<path fill-rule="evenodd" clip-rule="evenodd" d="M49.8436 0.000865682C55.0356 0.000865682 59.2462 4.22798 59.2462 9.43938C59.2462 12.2234 58.0447 14.7261 56.1327 16.454C56.213 16.1164 56.2492 15.777 56.2492 15.4437C56.2492 12.4442 53.4836 12.4442 52.2234 12.4442C50.964 12.4442 50.6679 12.4935 49.7296 12.4935C48.939 12.4935 48.1733 12.419 48.1733 11.4278C48.1733 10.7838 48.6921 10.3371 48.6921 10.3371C48.6921 10.3371 49.1366 10.4115 49.7797 10.4115C53.0883 10.4115 54.5833 8.62131 54.743 6.29696C55.1073 0.985144 44.5946 0.880397 44.7163 6.22251C44.7897 9.46881 47.6054 10.0402 47.6054 10.0402C47.6054 10.0402 45.7038 10.808 45.7038 12.6675C45.6925 13.0164 45.7821 13.3612 45.9617 13.6603C46.1414 13.9593 46.4034 14.1999 46.7163 14.353C46.7163 14.353 44.295 14.8248 44.0456 16.8695C42.9213 15.9871 42.0123 14.8593 41.3876 13.5719C40.7629 12.2844 40.4388 10.8712 40.4401 9.43938C40.4401 4.22798 44.6507 0 49.8436 0V0.000865682Z" fill="black"/>
<path d="M53.4784 6.34199C53.4784 7.16698 53.3144 8.07595 52.3364 8.55034C51.9405 8.71777 51.5145 8.80203 51.0848 8.79792C49.2911 8.79792 48.693 7.62147 48.693 6.36277C48.693 5.55768 48.8561 4.6695 49.8073 4.1951C50.1336 4.05053 50.5686 3.92674 51.0589 3.92674C52.8526 3.92674 53.4784 5.08242 53.4784 6.34199ZM0.72335 23.6643L0.756151 23.4349V22.6912L0.776004 21.7182V20.4811L0.756151 19.6787V19.219L0.736298 18.9489L0.72335 18.7645L1.03841 18.7844L1.33276 18.7645L1.29391 18.955V20.4811L1.2801 21.0534L1.29391 21.7243V23.4608L1.33276 23.6643H0.72335ZM8.26065 20.5868C8.47041 20.4993 8.69138 20.4552 8.92271 20.4552C9.3897 20.4552 9.76259 20.6058 10.0397 20.9053C10.3168 21.2066 10.4557 21.5953 10.4557 22.074C10.4557 22.5553 10.3116 22.9535 10.0241 23.2669C9.73497 23.5803 9.34826 23.737 8.86316 23.737C8.54896 23.737 8.26929 23.6625 8.02501 23.5136C7.76473 23.3713 7.56115 23.1436 7.4484 22.8687C7.35208 22.6448 7.30498 22.4027 7.31029 22.1588C7.31029 21.365 7.62708 20.8413 8.26065 20.5868ZM7.90071 22.145C7.89397 22.3594 7.92494 22.5733 7.99221 22.7769C8.12341 23.2548 8.40912 23.4937 8.85021 23.4937C9.331 23.4937 9.6452 23.1994 9.79366 22.6125C9.84145 22.4278 9.86581 22.2379 9.86617 22.0472C9.86617 21.7052 9.79798 21.4048 9.66246 21.146C9.50623 20.8473 9.25245 20.6984 8.90286 20.6984C8.45314 20.6984 8.15362 20.9529 8.00515 21.462C7.9361 21.6723 7.90071 21.9 7.90071 22.1459V22.145ZM17.0237 20.5868C17.2326 20.4993 17.4535 20.4552 17.6849 20.4552C18.1527 20.4552 18.5247 20.6058 18.8018 20.9053C19.0798 21.2066 19.2179 21.5953 19.2179 22.074C19.2179 22.5553 19.0737 22.9535 18.7863 23.2669C18.4971 23.5803 18.1113 23.737 17.6262 23.737C17.312 23.737 17.0323 23.6625 16.7872 23.5136C16.5268 23.3714 16.3232 23.1437 16.2106 22.8687C16.1142 22.6448 16.0671 22.4027 16.0724 22.1588C16.0724 21.365 16.3901 20.8413 17.0237 20.5868ZM16.6629 22.145C16.6629 22.2636 16.6698 22.3709 16.6827 22.4679C16.6957 22.564 16.7198 22.667 16.7544 22.7769C16.8856 23.2548 17.1721 23.4937 17.6132 23.4937C18.0932 23.4937 18.4074 23.1994 18.5567 22.6125C18.604 22.4278 18.6281 22.2379 18.6283 22.0472C18.6283 21.7052 18.561 21.4048 18.4255 21.146C18.2684 20.8473 18.0146 20.6984 17.6659 20.6984C17.2153 20.6984 16.9158 20.9529 16.7682 21.462C16.6983 21.6723 16.6629 21.9 16.6629 22.1459V22.145ZM25.3206 18.7853L25.6348 18.7645L25.6089 18.9229V19.1463L25.583 19.8631V21.8758L25.7271 21.8688C25.7746 21.8602 25.8333 21.8212 25.9032 21.7511L26.0802 21.5866C26.1639 21.5165 26.2839 21.3892 26.441 21.2049L26.7552 20.8629L26.9123 20.6854L27.0245 20.521L27.3447 20.5409L27.633 20.521L27.4501 20.6915L26.8734 21.1979L26.4608 21.5728L26.1587 21.8429L26.4833 22.2013L26.9718 22.7639L27.4699 23.3292L27.6598 23.5136L27.8497 23.6643L27.3516 23.6513L26.9969 23.6643L26.8916 23.5084L26.7302 23.2955L26.3296 22.7899L25.8842 22.2835L25.6805 22.0472H25.5821V23.2305C25.5821 23.3405 25.5908 23.4193 25.6089 23.4677L25.6348 23.6643L25.3206 23.6513L25.0254 23.6643L25.0513 23.4807V23.2305L25.078 22.6324V19.8561L25.0521 19.1463V18.9359L25.0262 18.7645L25.3197 18.7844L25.3206 18.7853ZM33.6045 23.4807V22.8159L33.6244 22.0134L33.6045 21.3763V20.6984L33.5717 20.521L33.8738 20.5409L34.1811 20.521L34.1483 20.7054V21.3892L34.1285 22.0134L34.1483 22.8159V23.4877L34.1811 23.6643L33.8868 23.6513L33.5717 23.6643L33.6045 23.4807ZM33.6511 19.1662C33.6827 19.1328 33.7207 19.1061 33.7628 19.088C33.805 19.0698 33.8504 19.0605 33.8963 19.0606C34.1207 19.0606 34.2329 19.1731 34.2329 19.3965C34.2329 19.6155 34.1207 19.7254 33.8963 19.7254C33.8524 19.7268 33.8087 19.7193 33.7677 19.7034C33.7268 19.6875 33.6894 19.6635 33.6579 19.6328C33.6264 19.6021 33.6014 19.5653 33.5844 19.5247C33.5674 19.4841 33.5587 19.4405 33.5588 19.3965C33.5588 19.3038 33.5899 19.2276 33.6511 19.1662ZM40.4038 23.5266L40.4194 23.3362L40.434 23.0202V20.9088L40.4038 20.6456L40.3883 20.521L40.6835 20.5409L40.9718 20.521L40.939 20.6396L40.9191 20.8698V21.0473L41.0314 20.8958C41.2739 20.6015 41.5838 20.4543 41.9575 20.4543C42.245 20.4543 42.4884 20.5348 42.6861 20.695C42.8837 20.8551 42.9968 21.0819 43.0227 21.3763V23.3093L43.0417 23.5396L43.0616 23.6643L42.7672 23.6513L42.4591 23.6643L42.4867 23.5257L42.5048 23.2634V21.5927C42.4979 21.5625 42.4936 21.5318 42.4919 21.5009C42.488 21.4039 42.464 21.3088 42.4215 21.2217C42.379 21.1345 42.3189 21.0571 42.245 20.9945C42.1005 20.8725 41.9168 20.807 41.7279 20.8101C41.2938 20.8101 41.0434 21.043 40.9778 21.507L40.939 21.9485V23.3214L40.964 23.5257L40.9977 23.6643L40.6697 23.6504L40.3883 23.6634L40.4038 23.5249V23.5266ZM49.4456 23.2894C49.2842 23.215 49.204 23.0834 49.204 22.8947C49.204 22.6713 49.3714 22.4921 49.7081 22.3562L49.4923 22.2766C49.1729 22.1424 49.0132 21.8758 49.0132 21.4775C49.0132 21.1105 49.1686 20.8369 49.4793 20.6577C49.5441 20.6188 49.6088 20.5868 49.6718 20.5608C49.7391 20.5332 49.8095 20.5143 49.8816 20.5045C49.9575 20.4933 50.0369 20.4837 50.1172 20.4751C50.1983 20.4664 50.2864 20.4621 50.3831 20.4621H50.6507L51.0572 20.4881H51.4241L51.7978 20.4361V20.7833L51.4698 20.7383H51.1884C51.4163 20.9252 51.5294 21.1581 51.5294 21.4334C51.5294 21.5504 51.5047 21.666 51.4569 21.7727C51.4052 21.9085 51.3192 22.0284 51.2074 22.1207C50.964 22.3424 50.6731 22.4549 50.3365 22.4549H50.0482C49.7607 22.4549 49.6166 22.5441 49.6166 22.7241C49.6166 22.8999 49.7693 22.9873 50.0749 22.9873H50.8026C51.0986 22.9873 51.3377 23.0444 51.5164 23.157C51.6246 23.218 51.7141 23.3075 51.7753 23.4158C51.8364 23.5241 51.8669 23.6472 51.8634 23.7716C51.8634 24.1456 51.6847 24.4572 51.3265 24.7065C51.0417 24.9022 50.6912 25 50.2709 25H50.0153C49.9697 24.9907 49.924 24.982 49.8781 24.974C49.6071 24.9342 49.3956 24.8528 49.2428 24.7299C49.033 24.5637 48.9277 24.3681 48.9277 24.1447C48.9277 23.8071 49.1789 23.5526 49.6813 23.382C49.5978 23.3659 49.5179 23.3345 49.4456 23.2894ZM49.368 24.1118C49.368 24.3352 49.4698 24.5066 49.6753 24.6252C49.828 24.7126 50.0335 24.7559 50.2907 24.7559C50.579 24.7559 50.8147 24.7039 50.9985 24.5983C51.248 24.4581 51.3723 24.2607 51.3723 24.0062C51.3723 23.608 51.0425 23.4089 50.3831 23.4089C50.2303 23.4089 50.0879 23.421 49.9566 23.4478C49.5639 23.5257 49.3671 23.7482 49.3671 24.1118H49.368ZM49.6166 21.4542C49.6166 21.9632 49.8289 22.2177 50.2553 22.2177C50.351 22.2208 50.446 22.2016 50.5331 22.1617C50.6201 22.1217 50.6967 22.0621 50.7568 21.9874C50.8742 21.8558 50.9329 21.6758 50.9329 21.4481C50.9384 21.241 50.8664 21.0393 50.7309 20.8828C50.6308 20.7599 50.4789 20.6984 50.2743 20.6984C50.1792 20.6942 50.0843 20.7121 49.9973 20.7509C49.9103 20.7896 49.8334 20.8481 49.7728 20.9218C49.6692 21.0715 49.6166 21.249 49.6166 21.455V21.4542ZM59.0667 20.6785L59.0468 20.4881L59.1323 20.514C59.1841 20.5314 59.2652 20.54 59.374 20.54H59.4793L59.4991 20.3305C59.5207 20.1634 59.5397 20.0466 59.5544 19.9782C59.5718 19.9032 59.5949 19.8297 59.6234 19.7583C59.6883 19.5592 59.7896 19.374 59.9221 19.2121C60.0512 19.0431 60.2152 18.904 60.4029 18.8043C60.4599 18.7784 60.5082 18.7593 60.5479 18.7481C60.5927 18.7364 60.6389 18.7309 60.6851 18.7316H60.7835L60.8552 18.7515L60.8353 19.0285L60.8552 19.3237L60.6851 19.2692C60.6172 19.2483 60.5465 19.2381 60.4754 19.2389C60.1129 19.2389 59.9316 19.4207 59.9316 19.7877L59.9558 20.1608L60.0032 20.5409H60.2397L60.541 20.5037L60.6851 20.4881L60.6592 20.6854L60.6722 20.8698L60.4823 20.8439L60.194 20.817H59.9903L59.9842 21.0179V22.2991L60.0032 23.2141V23.4816L60.036 23.6643L59.7477 23.6513L59.4266 23.6643L59.4525 23.4807V23.2037L59.4793 22.2904V20.817H59.3748C59.3107 20.8173 59.2468 20.8261 59.1849 20.843L59.0468 20.869L59.0667 20.6785ZM67.0295 20.5868C67.2393 20.4993 67.4602 20.4552 67.6916 20.4552C68.1586 20.4552 68.5315 20.6058 68.8085 20.9053C69.0865 21.2066 69.2246 21.5953 69.2246 22.074C69.2246 22.5553 69.0804 22.9535 68.793 23.2669C68.5038 23.5803 68.1171 23.737 67.6329 23.737C67.3178 23.737 67.0382 23.6625 66.7939 23.5136C66.5336 23.3713 66.33 23.1436 66.2173 22.8687C66.121 22.6448 66.0739 22.4027 66.0792 22.1588C66.0792 21.365 66.3968 20.8413 67.0295 20.5868ZM66.6696 22.145C66.6629 22.3594 66.6939 22.5733 66.7611 22.7769C66.8923 23.2548 67.178 23.4937 67.6191 23.4937C68.0999 23.4937 68.4141 23.1994 68.5634 22.6125C68.6111 22.4278 68.6351 22.2379 68.635 22.0472C68.635 21.7052 68.5677 21.4048 68.4322 21.146C68.2751 20.8473 68.0213 20.6984 67.6726 20.6984C67.222 20.6984 66.9225 20.9529 66.7749 21.462C66.7041 21.6723 66.6696 21.9 66.6696 22.1459V22.145ZM75.1564 23.4937V22.9284L75.1633 22.1259V21.2836L75.1564 20.9356V20.6655L75.1106 20.521L75.4386 20.5409L75.7528 20.521L75.7295 20.6785L75.7002 20.9157V21.0863L75.8771 20.8439C76.0869 20.5842 76.3079 20.4543 76.5392 20.4543L76.6963 20.4751L76.7818 20.4941L76.6963 20.7642L76.6704 21.0534L76.5193 21.0014C76.4586 20.9788 76.3942 20.9676 76.3294 20.9685C75.9496 20.9685 75.7338 21.2135 75.6838 21.7044C75.675 21.8072 75.6695 21.9102 75.6674 22.0134V23.2435L75.7002 23.4807L75.72 23.6643L75.4447 23.6513L75.1106 23.6643L75.1564 23.4937ZM82.3398 20.5409L82.6738 20.521L82.7196 20.7183L82.7791 20.9348L82.8836 21.2966L83.0838 21.861L83.2418 22.3372L83.4662 22.9146L83.676 22.3623L83.8538 21.8628L84.0472 21.2585L84.1386 20.9625L84.2138 20.7114L84.2595 20.521L84.4831 20.5409L84.7058 20.521L84.7645 20.7183L84.843 20.9746L84.9475 21.3035L85.1374 21.8628L85.3212 22.3882L85.518 22.9284L85.7278 22.409L85.9306 21.8558L86.1197 21.2966L86.2388 20.9486L86.3044 20.7183L86.3432 20.521L86.6056 20.5409L86.8542 20.521L86.7558 20.7183L86.6246 20.9876L86.4744 21.3235L86.2353 21.9164L85.8262 22.9345L85.6751 23.3223L85.6173 23.5128L85.5715 23.6643H85.1986L85.1658 23.5136L85.1071 23.3024L84.9967 22.9336L84.7999 22.3744L84.5409 21.6784L84.37 21.2308L84.206 21.6966L83.9643 22.3753L83.7882 22.9016L83.657 23.3024L83.5983 23.5197L83.5586 23.6643H83.1857L83.1391 23.5136L83.0735 23.2894L82.9293 22.8756L82.5694 21.9216L82.3467 21.3295L82.1827 20.9417L82.0843 20.7114L81.9997 20.521L82.3398 20.5409ZM92.6099 20.8369L92.6945 20.7642C92.8675 20.6431 93.0608 20.554 93.2651 20.5011C93.3307 20.4881 93.3946 20.4768 93.4584 20.4682C93.6722 20.4391 93.8897 20.4548 94.0972 20.514C94.3328 20.5885 94.5141 20.727 94.641 20.9296C94.7282 21.056 94.7722 21.2793 94.7722 21.5996V23.2963C94.7851 23.4279 94.8568 23.4937 94.988 23.4937L95.0933 23.4868L95.1321 23.6383L95.0734 23.6582L94.8965 23.7101L94.6936 23.737C94.4943 23.737 94.3691 23.6452 94.3182 23.4608L94.2802 23.3292L94.1809 23.402C94.1153 23.4539 94.0437 23.5006 93.9634 23.5405C93.8805 23.5924 93.7899 23.6322 93.6924 23.6582C93.4524 23.7515 93.1885 23.763 92.9414 23.6911C92.5366 23.5812 92.3346 23.3232 92.3346 22.9146C92.3346 22.7657 92.363 22.6324 92.4192 22.5138C92.4851 22.3617 92.5992 22.2358 92.7437 22.1554C92.8818 22.0827 93.051 22.0316 93.2521 22.0004L93.8805 21.8827L94.117 21.823C94.1561 21.8121 94.1919 21.7919 94.2215 21.7641C94.252 21.7286 94.2722 21.6856 94.2802 21.6394V21.4949C94.2543 21.2265 94.1887 21.0343 94.0842 20.9149C93.953 20.7712 93.7649 20.6984 93.5206 20.6984C93.4153 20.6984 93.3186 20.7106 93.2288 20.7348C93.1426 20.7575 93.0598 20.7919 92.9828 20.8369C92.8602 20.9027 92.7601 21.0231 92.6816 21.1988H92.6099V20.8369ZM94.2802 22.0601L93.8762 22.1259C93.7508 22.1454 93.6271 22.174 93.5059 22.2116C93.1183 22.3121 92.9241 22.5164 92.9241 22.8228C92.9241 23.1907 93.127 23.3751 93.5327 23.3751C93.7933 23.3751 94.0161 23.2851 94.2008 23.1059L94.2802 23.0202V22.0593V22.0601ZM100.947 23.4937V22.9284L100.953 22.1259V21.2836L100.947 20.9356V20.6655L100.901 20.521L101.228 20.5409L101.542 20.521L101.52 20.6785L101.49 20.9157V21.0863L101.667 20.8439C101.876 20.5842 102.097 20.4543 102.328 20.4543L102.486 20.4751L102.571 20.4941L102.486 20.7642L102.46 21.0534L102.31 21.0014C102.248 20.9788 102.184 20.9676 102.119 20.9685C101.739 20.9685 101.524 21.2135 101.474 21.7044C101.463 21.807 101.458 21.9102 101.458 22.0134V23.2435L101.49 23.4807L101.51 23.6643L101.234 23.6513L100.901 23.6643L100.947 23.4937ZM110.322 23.5266L110.351 23.1777V22.9613L110.265 23.1189C110.03 23.5309 109.676 23.737 109.204 23.737C108.771 23.737 108.433 23.5664 108.189 23.2236C107.979 22.9215 107.874 22.5441 107.874 22.093C107.874 21.6325 107.992 21.2533 108.227 20.9555C108.355 20.7956 108.518 20.6673 108.704 20.5805C108.889 20.4938 109.092 20.4509 109.296 20.4552C109.483 20.4552 109.672 20.5002 109.862 20.5902C110.052 20.6803 110.189 20.8084 110.272 20.9746L110.305 21.0473L110.291 20.4024L110.278 19.5021V18.9298L110.259 18.7654L110.548 18.7844L110.862 18.7654L110.829 19.1792V21.6784L110.809 22.7968L110.829 23.2037V23.5136L110.862 23.6651L110.58 23.6513L110.298 23.6651L110.322 23.5266ZM108.463 22.0463V22.2307C108.463 22.2965 108.473 22.3891 108.49 22.5077C108.503 22.6523 108.538 22.7882 108.595 22.9146C108.734 23.2747 108.981 23.4539 109.335 23.4539C109.715 23.4539 109.986 23.2617 110.147 22.8756C110.235 22.6653 110.278 22.3908 110.278 22.0532C110.278 21.6585 110.2 21.3408 110.043 21.1001C109.886 20.8586 109.672 20.7383 109.401 20.7383C108.776 20.7383 108.463 21.1746 108.463 22.0472V22.0463Z" fill="black"/>
</svg>
