<svg width="18" height="18" viewBox="0 0 18 18" fill="none" xmlns="http://www.w3.org/2000/svg">
<path d="M2 0C0.895431 0 0 0.89543 0 2V16C0 17.1046 0.89543 18 2 18H9.21619C9.14342 17.997 9.07483 17.9652 9.02541 17.9117C8.97599 17.8582 8.94978 17.7873 8.95252 17.7146V11.9069H7.26389C7.19112 11.9038 7.12251 11.8721 7.07309 11.8186C7.02367 11.7651 6.99746 11.6942 7.00019 11.6215V9.31921C6.99746 9.24644 7.02367 9.17554 7.07309 9.12204C7.12251 9.06854 7.19112 9.0368 7.26389 9.03377H8.95252V7.44555C8.95252 5.35255 10.1714 4 12.0576 4H13.7369C13.8098 4.00343 13.8785 4.03564 13.9277 4.08958C13.977 4.14352 14.0029 4.21479 13.9997 4.28777V6.42588C14.0023 6.49852 13.976 6.56923 13.9266 6.62256C13.8772 6.67588 13.8087 6.70751 13.7361 6.71054H12.6044C12.4723 6.68174 12.3351 6.68756 12.206 6.72742C12.0768 6.76728 11.9602 6.83984 11.8674 6.93805C11.7746 7.03627 11.7087 7.1568 11.6762 7.28797C11.6437 7.41913 11.6456 7.55647 11.6819 7.68666V9.03377H13.6567C13.692 9.03407 13.7268 9.04171 13.7589 9.05617C13.791 9.07063 13.8198 9.0916 13.8434 9.11777C13.8938 9.1727 13.9216 9.24466 13.9212 9.31921V11.6215C13.9237 11.6943 13.8973 11.7652 13.8478 11.8187C13.7983 11.8721 13.7296 11.9038 13.6567 11.9069H11.6827V17.7146C11.6841 17.7506 11.6784 17.7866 11.666 17.8205C11.6535 17.8544 11.6345 17.8854 11.61 17.9119C11.5855 17.9385 11.556 17.9599 11.5232 17.975C11.4905 17.9901 11.455 17.9986 11.419 18H16C17.1046 18 18 17.1046 18 16V2C18 0.895431 17.1046 0 16 0H2Z" fill="black"/>
</svg>
