<svg width="18" height="16" viewBox="0 0 18 16" fill="none" xmlns="http://www.w3.org/2000/svg">
<path fill-rule="evenodd" clip-rule="evenodd" d="M4.04417 15.996V5.31346H0.231332V15.996H4.04417ZM2.1322 3.85423C2.69378 3.85155 3.23124 3.64664 3.62677 3.28444C4.02231 2.92224 4.24361 2.4323 4.24213 1.92207C4.24066 1.41185 4.01655 0.922979 3.61893 0.562667C3.22131 0.202355 2.68265 0 2.12107 0C1.55949 0 1.02083 0.202355 0.62321 0.562667C0.225591 0.922979 0.00147973 1.41185 7.30193e-06 1.92207C-0.00146513 2.4323 0.219801 2.92224 0.615335 3.28444C1.01087 3.64664 1.54836 3.85155 2.10994 3.85423H2.1322ZM6.15638 15.996H9.9681V10.0337C9.95335 9.74045 9.99473 9.44708 10.0904 9.16667C10.2277 8.79239 10.4898 8.46625 10.8404 8.23353C11.191 8.00082 11.6127 7.87309 12.0469 7.86811C13.425 7.86811 13.9811 8.84735 13.9811 10.2833V16H17.7928V9.87102C17.7928 6.58875 15.902 5.06283 13.4027 5.06283C12.6983 5.04028 12.0009 5.1962 11.3884 5.51315C10.776 5.8301 10.2727 6.29559 9.9347 6.85757H9.9681V5.31346H6.15638C6.20087 6.31391 6.15638 15.996 6.15638 15.996Z" fill="black"/>
</svg>
