<svg width="18" height="15" viewBox="0 0 18 15" fill="none" xmlns="http://www.w3.org/2000/svg">
<path fill-rule="evenodd" clip-rule="evenodd" d="M18 1.7549C17.3277 2.05704 16.6136 2.25589 15.8819 2.34478C16.6556 1.87364 17.2324 1.13808 17.5054 0.274306C16.782 0.709913 15.9887 1.01698 15.1606 1.18193C14.8168 0.80866 14.3993 0.510858 13.9344 0.307402C13.4695 0.103947 12.9675 -0.000722202 12.46 3.75048e-06C11.9717 0.00319177 11.4889 0.102541 11.039 0.292374C10.5892 0.482206 10.1811 0.758797 9.83818 1.10636C9.49524 1.45393 9.22411 1.86566 9.04032 2.31802C8.85653 2.77038 8.76365 3.2545 8.767 3.74276C8.7667 4.02997 8.79867 4.31631 8.86232 4.59638C7.38938 4.51926 5.94951 4.13095 4.63755 3.45699C3.32558 2.78302 2.1713 1.83872 1.25076 0.686294C0.778694 1.51025 0.634154 2.48171 0.845904 3.40741C1.05765 4.3331 1.61018 5.14514 2.39351 5.68192C1.8065 5.663 1.23276 5.50241 0.721228 5.21382V5.26146C0.717438 6.12116 1.0104 6.95585 1.55065 7.6246C2.0909 8.29335 2.84535 8.75521 3.68663 8.93221C3.36947 9.01888 3.04213 9.06271 2.71334 9.0625C2.48045 9.0626 2.24811 9.03991 2.01965 8.99472C2.25076 9.73423 2.70778 10.3827 3.32649 10.8491C3.9452 11.3155 4.69449 11.5762 5.46905 11.5947C4.16578 12.6329 2.54846 13.1975 0.882216 13.196C0.587409 13.1962 0.292832 13.1793 0 13.1452C1.68335 14.2424 3.64929 14.8267 5.65863 14.827C7.05038 14.8267 8.42822 14.55 9.71219 14.013C10.9962 13.476 12.1607 12.6893 13.1383 11.6987C14.1158 10.708 14.8869 9.53312 15.4068 8.24211C15.9267 6.95109 16.185 5.56969 16.1668 4.17805C16.1668 4.01602 16.1667 3.85504 16.1562 3.69406C16.8811 3.16348 17.5052 2.50745 17.9989 1.757L18 1.7549Z" fill="black"/>
</svg>
